<svg width="0" height="0" class="hidden">
    <symbol xmlns="http://www.w3.org/2000/svg"
            viewBox="0 0 24 24" id="back">
        <title>backe</title>
        <g id="页面-1" stroke="none" stroke-width="1" fill="none" fill-rule="evenodd">
            <g id="Arrow" transform="translate(-480.000000, 0.000000)" fill-rule="nonzero">
                <g id="back_2_line" transform="translate(480.000000, 0.000000)">
                    <path d="M24,0 L24,24 L0,24 L0,0 L24,0 Z M12.5934901,23.257841 L12.5819402,23.2595131 L12.5108777,23.2950439 L12.4918791,23.2987469 L12.4918791,23.2987469 L12.4767152,23.2950439 L12.4056548,23.2595131 C12.3958229,23.2563662 12.3870493,23.2590235 12.3821421,23.2649074 L12.3780323,23.275831 L12.360941,23.7031097 L12.3658947,23.7234994 L12.3769048,23.7357139 L12.4804777,23.8096931 L12.4953491,23.8136134 L12.4953491,23.8136134 L12.5071152,23.8096931 L12.6106902,23.7357139 L12.6232938,23.7196733 L12.6232938,23.7196733 L12.6266527,23.7031097 L12.609561,23.275831 C12.6075724,23.2657013 12.6010112,23.2592993 12.5934901,23.257841 L12.5934901,23.257841 Z M12.8583906,23.1452862 L12.8445485,23.1473072 L12.6598443,23.2396597 L12.6498822,23.2499052 L12.6498822,23.2499052 L12.6471943,23.2611114 L12.6650943,23.6906389 L12.6699349,23.7034178 L12.6699349,23.7034178 L12.678386,23.7104931 L12.8793402,23.8032389 C12.8914285,23.8068999 12.9022333,23.8029875 12.9078286,23.7952264 L12.9118235,23.7811639 L12.8776777,23.1665331 C12.8752882,23.1545897 12.8674102,23.1470016 12.8583906,23.1452862 L12.8583906,23.1452862 Z M12.1430473,23.1473072 C12.1332178,23.1423925 12.1221763,23.1452606 12.1156365,23.1525954 L12.1099173,23.1665331 L12.0757714,23.7811639 C12.0751323,23.7926639 12.0828099,23.8018602 12.0926481,23.8045676 L12.108256,23.8032389 L12.3092106,23.7104931 L12.3186497,23.7024347 L12.3186497,23.7024347 L12.3225043,23.6906389 L12.340401,23.2611114 L12.337245,23.2485176 L12.337245,23.2485176 L12.3277531,23.2396597 L12.1430473,23.1473072 Z"
                          id="MingCute" fill-rule="nonzero"/>
                    <path d="M6.04599,11.6767 C7.35323,9.47493 9.75524,8 12.5,8 C16.6421,8 20,11.3579 20,15.5 C20,16.0523 20.4477,16.5 21,16.5 C21.5523,16.5 22,16.0523 22,15.5 C22,10.2533 17.7467,6 12.5,6 C9.31864,6 6.50386,7.56337 4.78,9.96279 L4.24303,6.91751 C4.14713,6.37361 3.62847,6.01044 3.08458,6.10635 C2.54068,6.20225 2.17751,6.72091 2.27342,7.2648 L3.31531,13.1736 C3.36136,13.4348 3.50928,13.667 3.72654,13.8192 C4.0104,14.0179 4.38776,14.0542 4.70227,13.9445 L10.3826,12.9429 C10.9265,12.847 11.2897,12.3284 11.1938,11.7845 C11.0979,11.2406 10.5792,10.8774 10.0353,10.9733 L6.04599,11.6767 Z"
                          id="路径" fill="#09244B"/>
                </g>
            </g>
        </g>
    </symbol>
    <symbol fill="none" xmlns="http://www.w3.org/2000/svg" viewBox="0 0 24 24" id="add">
        <path d="M15 12L12 12M12 12L9 12M12 12L12 9M12 12L12 15" stroke="var(--primary)" stroke-width="1.5"
              stroke-linecap="round"/>
        <path d="M7 3.33782C8.47087 2.48697 10.1786 2 12 2C17.5228 2 22 6.47715 22 12C22 17.5228 17.5228 22 12 22C6.47715 22 2 17.5228 2 12C2 10.1786 2.48697 8.47087 3.33782 7"
              stroke="var(--primary)" stroke-width="1.5" stroke-linecap="round"/>
    </symbol>
    <symbol fill="none" xmlns="http://www.w3.org/2000/svg" viewBox="0 0 24 24" id="sound-on">
        <path d="M2.00299 11.7155C2.04033 9.87326 2.059 8.95215 2.67093 8.16363C2.78262 8.0197 2.9465 7.8487 3.08385 7.73274C3.83639 7.09741 4.82995 7.09741 6.81706 7.09741C7.527 7.09741 7.88197 7.09741 8.22035 7.00452C8.29067 6.98522 8.36024 6.96296 8.4289 6.93781C8.75936 6.81674 9.05574 6.60837 9.64851 6.19161C11.9872 4.54738 13.1565 3.72527 14.138 4.08241C14.3261 4.15088 14.5083 4.24972 14.671 4.37162C15.5194 5.00744 15.5839 6.48675 15.7128 9.44537C15.7606 10.5409 15.7931 11.4785 15.7931 12C15.7931 12.5215 15.7606 13.4591 15.7128 14.5546C15.5839 17.5132 15.5194 18.9926 14.671 19.6284C14.5083 19.7503 14.3261 19.8491 14.138 19.9176C13.1565 20.2747 11.9872 19.4526 9.64851 17.8084C9.05574 17.3916 8.75936 17.1833 8.4289 17.0622C8.36024 17.037 8.29067 17.0148 8.22035 16.9955C7.88197 16.9026 7.527 16.9026 6.81706 16.9026C4.82995 16.9026 3.83639 16.9026 3.08385 16.2673C2.9465 16.1513 2.78262 15.9803 2.67093 15.8364C2.059 15.0478 2.04033 14.1267 2.00299 12.2845C2.00103 12.1878 2 12.0928 2 12C2 11.9072 2.00103 11.8122 2.00299 11.7155Z"
              fill="var(--primary)"/>
        <path fill-rule="evenodd" clip-rule="evenodd"
              d="M19.4895 5.55219C19.7821 5.29218 20.217 5.33434 20.4608 5.64635L19.931 6.11713C20.4608 5.64635 20.4606 5.64602 20.4608 5.64635L20.4619 5.6477L20.4631 5.64921L20.4658 5.65275L20.4727 5.66184C20.4779 5.6688 20.4844 5.67756 20.4921 5.68814C20.5075 5.70929 20.5275 5.73772 20.5515 5.77358C20.5995 5.84529 20.6635 5.94667 20.7379 6.07889C20.8868 6.34345 21.077 6.73092 21.2644 7.25038C21.6397 8.29107 22 9.85136 22 12.0002C22 14.1491 21.6397 15.7094 21.2644 16.7501C21.077 17.2695 20.8868 17.657 20.7379 17.9216C20.6635 18.0538 20.5995 18.1552 20.5515 18.2269C20.5275 18.2627 20.5075 18.2912 20.4921 18.3123C20.4844 18.3229 20.4779 18.3317 20.4727 18.3386L20.4658 18.3477L20.4631 18.3513L20.4619 18.3528C20.4616 18.3531 20.4608 18.3541 19.931 17.8833L20.4608 18.3541C20.217 18.6661 19.7821 18.7083 19.4895 18.4483C19.1983 18.1895 19.1578 17.729 19.3977 17.417C19.3983 17.4163 19.3994 17.4148 19.4009 17.4127C19.4058 17.406 19.4154 17.3925 19.4291 17.372C19.4565 17.3311 19.5003 17.2625 19.5552 17.1649C19.6649 16.9698 19.8195 16.6587 19.977 16.2221C20.2913 15.3508 20.6207 13.9695 20.6207 12.0002C20.6207 10.0309 20.2913 8.64968 19.977 7.77836C19.8195 7.34181 19.6649 7.03066 19.5552 6.8356C19.5003 6.73802 19.4565 6.66934 19.4291 6.62845C19.4154 6.608 19.4058 6.59449 19.4009 6.58778C19.3994 6.58561 19.3983 6.58416 19.3977 6.5834C19.3977 6.5834 19.3977 6.58341 19.3977 6.5834"
              fill="var(--primary)"/>
        <path fill-rule="evenodd" clip-rule="evenodd"
              d="M17.7571 8.41595C18.0901 8.21871 18.51 8.34663 18.6949 8.70166L18.0921 9.0588C18.6949 8.70166 18.6948 8.70134 18.6949 8.70166L18.6956 8.70295L18.6963 8.70432L18.6978 8.7073L18.7014 8.71428L18.7102 8.73227C18.7169 8.74607 18.7251 8.76348 18.7345 8.78457C18.7533 8.82676 18.7772 8.88363 18.8042 8.95574C18.8584 9.10004 18.9251 9.3049 18.99 9.57476C19.1199 10.115 19.2415 10.9119 19.2415 12.0003C19.2415 13.0888 19.1199 13.8857 18.99 14.4259C18.9251 14.6958 18.8584 14.9007 18.8042 15.045C18.7772 15.1171 18.7533 15.1739 18.7345 15.2161C18.7251 15.2372 18.7169 15.2546 18.7102 15.2684L18.7014 15.2864L18.6978 15.2934L18.6963 15.2964L18.6956 15.2978C18.6954 15.2981 18.6949 15.299 18.0921 14.9419L18.6949 15.299C18.51 15.6541 18.0901 15.782 17.7571 15.5847C17.427 15.3892 17.3063 14.9474 17.4846 14.5938L17.4892 14.5838C17.4955 14.5697 17.5075 14.5415 17.5236 14.4987C17.5557 14.4132 17.6039 14.2688 17.6539 14.0606C17.7539 13.6448 17.8622 12.9709 17.8622 12.0003C17.8622 11.0298 17.7539 10.3559 17.6539 9.94007C17.6039 9.73193 17.5557 9.58748 17.5236 9.50197C17.5075 9.45918 17.4955 9.43102 17.4892 9.41691L17.4846 9.40687C17.3063 9.05332 17.427 8.61152 17.7571 8.41595Z"
              fill="var(--primary)"/>
    </symbol>
    <symbol fill="var(--primary)" xmlns="http://www.w3.org/2000/svg" viewBox="0 0 24 24" id="sound-off">
        <path d="M21.7803 3.53033C22.0732 3.23744 22.0732 2.76256 21.7803 2.46967C21.4874 2.17678 21.0126 2.17678 20.7197 2.46967L16.2705 6.91886C16.2246 6.39532 16.1646 5.93197 16.077 5.52977C15.9052 4.74135 15.6003 4.05581 14.9609 3.60646C14.7259 3.44128 14.4642 3.30809 14.1923 3.21531C13.3741 2.9361 12.5608 3.15928 11.7348 3.56055C10.9212 3.95576 9.93412 4.60663 8.70324 5.41822L8.43647 5.59411C7.98856 5.88944 7.83448 5.98815 7.67513 6.05848C7.50452 6.13378 7.3252 6.18757 7.14132 6.21862C6.96956 6.24762 6.7866 6.25003 6.25008 6.25003L6.08906 6.24998C4.87215 6.24933 4.02659 6.24889 3.27496 6.59664C2.58016 6.9181 1.91141 7.54732 1.54828 8.22128C1.15566 8.94996 1.10959 9.712 1.04409 10.7955L1.03618 10.926C1.01373 11.2943 1 11.6585 1 12C1 12.3416 1.01373 12.7058 1.03618 13.0741L1.04409 13.2045C1.10959 14.2881 1.15566 15.0501 1.54828 15.7788C1.91141 16.4527 2.58016 17.082 3.27496 17.4034C3.88551 17.6859 4.55803 17.7386 5.44121 17.7481L2.71967 20.4697C2.42678 20.7626 2.42678 21.2374 2.71967 21.5303C3.01256 21.8232 3.48744 21.8232 3.78033 21.5303L21.7803 3.53033Z"
              fill="var(--primary)"/>
        <g opacity="0.4">
            <path d="M16.2382 9.07225L7.61424 17.6963C8.00956 18.1712 9.02592 18.8138 9.33873 19.0002C10.3775 19.6809 11.2373 20.2249 11.9702 20.5491C12.7125 20.8775 13.4501 21.0381 14.1921 20.7849C14.464 20.6921 14.7257 20.5589 14.9607 20.3937C15.6668 19.8975 15.9657 19.1135 16.1276 18.2141C16.2868 17.3297 16.3412 16.1578 16.409 14.6979L16.4117 14.6404C16.4635 13.5254 16.4998 12.5522 16.4998 12.0002C16.4998 11.9729 16.5 11.9363 16.5002 11.8916C16.503 11.3245 16.5122 9.46272 16.2382 9.07225Z"
                  fill="var(--primary)"/>
            <path d="M20.5143 6.31657C20.8918 6.14622 21.336 6.3142 21.5063 6.69176C21.9734 7.7269 22.4998 9.45974 22.4998 12.0002C22.4998 14.1917 22.108 15.783 21.6998 16.8444C21.496 17.3742 21.2892 17.7693 21.1273 18.0392C21.0464 18.174 20.9768 18.2774 20.9246 18.3505C20.8984 18.3871 20.8767 18.4161 20.86 18.4377C20.8516 18.4485 20.8446 18.4574 20.8389 18.4645L20.8314 18.4738L20.8284 18.4774L20.8271 18.4789C20.8271 18.4789 20.826 18.4803 20.2512 18.0013L20.826 18.4803C20.5608 18.7985 20.0879 18.8415 19.7697 18.5763C19.453 18.3124 19.4089 17.8428 19.6698 17.5246L19.6733 17.5202L19.6834 17.5068C19.6888 17.4996 19.6957 17.4902 19.704 17.4787C19.7337 17.437 19.7813 17.3669 19.8411 17.2674C19.9604 17.0685 20.1286 16.7512 20.2998 16.3059C20.6416 15.4173 20.9998 14.0086 20.9998 12.0002C20.9998 9.67383 20.5192 8.15116 20.1391 7.30865C19.9687 6.93109 20.1367 6.48692 20.5143 6.31657Z"
                  fill="var(--primary)"/>
            <path d="M19.3006 9.84771C19.2164 9.44214 18.8194 9.18162 18.4138 9.26583C18.0082 9.35003 17.7477 9.74706 17.8319 10.1526C17.9204 10.5789 17.9998 11.1874 17.9998 12.0002C17.9998 12.99 17.882 13.6773 17.7733 14.1014C17.7189 14.3137 17.6665 14.461 17.6316 14.5482C17.6141 14.5918 17.601 14.6205 17.5941 14.6349L17.5891 14.6452C17.3953 15.0058 17.5266 15.4563 17.8856 15.6558C18.2477 15.8569 18.7043 15.7265 18.9054 15.3644L18.2509 15.0008C18.9054 15.3644 18.9061 15.3631 18.9061 15.3631L18.9069 15.3617L18.9086 15.3586L18.9124 15.3515L18.9221 15.3332C18.9293 15.3191 18.9382 15.3014 18.9484 15.2798C18.9689 15.2368 18.9949 15.1788 19.0243 15.1053C19.0831 14.9581 19.1557 14.7492 19.2263 14.4739C19.3676 13.923 19.4998 13.1103 19.4998 12.0002C19.4998 11.0891 19.4107 10.3782 19.3006 9.84771Z"
                  fill="var(--primary)"/>
        </g>
    </symbol>
    <symbol fill="none" xmlns="http://www.w3.org/2000/svg" viewBox="0 0 24 24" id="theme-dark">
        <path opacity="0.5"
              d="M12 22C17.5228 22 22 17.5228 22 12C22 11.5373 21.3065 11.4608 21.0672 11.8568C19.9289 13.7406 17.8615 15 15.5 15C11.9101 15 9 12.0899 9 8.5C9 6.13845 10.2594 4.07105 12.1432 2.93276C12.5392 2.69347 12.4627 2 12 2C6.47715 2 2 6.47715 2 12C2 17.5228 6.47715 22 12 22Z"
              fill="var(--primary)"/>
        <path d="M11.2857 22C13.3371 22 15 20.4198 15 18.4706C15 16.9257 13.9554 15.6126 12.5008 15.1344C12.2941 13.3711 10.7203 12 8.80952 12C6.75818 12 5.09524 13.5802 5.09524 15.5294C5.09524 15.9605 5.17659 16.3736 5.3255 16.7555C5.15087 16.723 4.97039 16.7059 4.78571 16.7059C3.24721 16.7059 2 17.891 2 19.3529C2 20.8149 3.24721 22 4.78571 22H11.2857Z"
              fill="var(--primary)"/>
    </symbol>
    <symbol fill="none" xmlns="http://www.w3.org/2000/svg" viewBox="0 0 24 24" id="theme-light">
        <path opacity="0.5"
              d="M11.5 8C11.5 9.933 9.933 11.5 8 11.5C6.067 11.5 4.5 9.933 4.5 8C4.5 6.067 6.067 4.5 8 4.5C9.933 4.5 11.5 6.067 11.5 8Z"
              fill="var(--primary)"/>
        <g opacity="0.5">
            <path fill-rule="evenodd" clip-rule="evenodd"
                  d="M7.5 1.25C7.91421 1.25 8.25 1.58579 8.25 2V2.5C8.25 2.91421 7.91421 3.25 7.5 3.25C7.08579 3.25 6.75 2.91421 6.75 2.5V2C6.75 1.58579 7.08579 1.25 7.5 1.25ZM3.08086 3.08059C3.37375 2.78769 3.84862 2.78769 4.14152 3.08059L4.35758 3.29665C4.65047 3.58954 4.65047 4.06441 4.35758 4.35731C4.06468 4.6502 3.58981 4.6502 3.29692 4.35731L3.08086 4.14125C2.78796 3.84835 2.78796 3.37348 3.08086 3.08059ZM11.919 3.08073C12.2119 3.37362 12.2119 3.8485 11.919 4.14139L11.7029 4.35745C11.41 4.65034 10.9352 4.65034 10.6423 4.35745C10.3494 4.06456 10.3494 3.58968 10.6423 3.29679L10.8583 3.08073C11.1512 2.78784 11.6261 2.78784 11.919 3.08073ZM1.25 7.5C1.25 7.08579 1.58579 6.75 2 6.75H2.5C2.91421 6.75 3.25 7.08579 3.25 7.5C3.25 7.91421 2.91421 8.25 2.5 8.25H2C1.58579 8.25 1.25 7.91421 1.25 7.5ZM4.35758 10.6427C4.65047 10.9356 4.65047 11.4105 4.35758 11.7034L4.14152 11.9194C3.84862 12.2123 3.37375 12.2123 3.08086 11.9194C2.78796 11.6265 2.78796 11.1516 3.08086 10.8588L3.29692 10.6427C3.58981 10.3498 4.06468 10.3498 4.35758 10.6427Z"
                  fill="var(--primary)"/>
        </g>
        <path d="M16.2857 22C19.4416 22 22 19.4717 22 16.3529C22 13.8811 20.393 11.7802 18.1551 11.015C17.8371 8.19371 15.4159 6 12.4762 6C9.32028 6 6.7619 8.52827 6.7619 11.6471C6.7619 12.3369 6.88706 12.9978 7.11616 13.6089C6.8475 13.5567 6.56983 13.5294 6.28571 13.5294C3.91878 13.5294 2 15.4256 2 17.7647C2 20.1038 3.91878 22 6.28571 22H16.2857Z"
              fill="var(--primary)"/>
    </symbol>
    <symbol fill="none" xmlns="http://www.w3.org/2000/svg" viewBox="0 0 24 24" id="edit">
        <g id="SVGRepo_bgCarrier" stroke-width="0"/>
        <g id="SVGRepo_tracerCarrier" stroke-linecap="round" stroke-linejoin="round"/>
        <g id="SVGRepo_iconCarrier">
            <path d="M20.4445 6.88859C18.7779 7.4441 16.5559 5.22205 17.1114 3.55551M16.9766 3.6903L13.3862 7.28073C11.8253 8.84163 10.718 10.7974 10.1826 12.9389L10.0091 13.6329C9.95503 13.8491 10.1509 14.045 10.3671 13.9909L11.0611 13.8174C13.2026 13.282 15.1584 12.1747 16.7193 10.6138L20.3097 7.02338C20.7517 6.58139 21 5.98192 21 5.35684C21 4.05519 19.9448 3 18.6432 3C18.0181 3 17.4186 3.24831 16.9766 3.6903Z"
                  stroke="var(--primary)" stroke-width="1.5"/>
            <path d="M12 3C10.9767 3 9.95334 3.11763 8.95043 3.35288C6.17301 4.00437 4.00437 6.17301 3.35288 8.95043C2.88237 10.9563 2.88237 13.0437 3.35288 15.0496C4.00437 17.827 6.17301 19.9956 8.95044 20.6471C10.9563 21.1176 13.0437 21.1176 15.0496 20.6471C17.827 19.9956 19.9956 17.827 20.6471 15.0496C20.8824 14.0466 21 13.0233 21 12"
                  stroke="var(--primary)" stroke-width="1.5" stroke-linecap="round"/>
        </g>
    </symbol>
    <symbol viewBox="0 0 24 24" fill="none" xmlns="http://www.w3.org/2000/svg" id="stop">
        <g id="SVGRepo_bgCarrier" stroke-width="0"/>
        <g id="SVGRepo_tracerCarrier" stroke-linecap="round" stroke-linejoin="round"/>
        <g id="SVGRepo_iconCarrier">
            <circle cx="12" cy="12" r="10" stroke="var(--primary)" stroke-width="1.5"/>
            <path d="M8 12C8 10.1144 8 9.17157 8.58579 8.58579C9.17157 8 10.1144 8 12 8C13.8856 8 14.8284 8 15.4142 8.58579C16 9.17157 16 10.1144 16 12C16 13.8856 16 14.8284 15.4142 15.4142C14.8284 16 13.8856 16 12 16C10.1144 16 9.17157 16 8.58579 15.4142C8 14.8284 8 13.8856 8 12Z"
                  stroke="var(--primary)" stroke-width="1.5"/>
        </g>
    </symbol>
    <symbol viewBox="0 0 24 24" fill="none" xmlns="http://www.w3.org/2000/svg" id="start">
        <g id="SVGRepo_bgCarrier" stroke-width="0"/>
        <g id="SVGRepo_tracerCarrier" stroke-linecap="round" stroke-linejoin="round"/>
        <g id="SVGRepo_iconCarrier">
            <circle cx="12" cy="12" r="10" stroke="var(--primary)" stroke-width="1.5"/>
            <path d="M15.4137 10.941C16.1954 11.4026 16.1954 12.5974 15.4137 13.059L10.6935 15.8458C9.93371 16.2944 9 15.7105 9 14.7868L9 9.21316C9 8.28947 9.93371 7.70561 10.6935 8.15419L15.4137 10.941Z"
                  stroke="var(--primary)" stroke-width="1.5"/>
        </g>
    </symbol>
    <symbol viewBox="0 0 24 24" fill="none" xmlns="http://www.w3.org/2000/svg" id="delete">
        <g id="SVGRepo_bgCarrier" stroke-width="0"/>
        <g id="SVGRepo_tracerCarrier" stroke-linecap="round" stroke-linejoin="round"/>
        <g id="SVGRepo_iconCarrier">
            <path fill-rule="evenodd" clip-rule="evenodd"
                  d="M10.3094 2.25002H13.6908C13.9072 2.24988 14.0957 2.24976 14.2737 2.27819C14.977 2.39049 15.5856 2.82915 15.9146 3.46084C15.9978 3.62073 16.0573 3.79961 16.1256 4.00494L16.2373 4.33984C16.2562 4.39653 16.2616 4.41258 16.2661 4.42522C16.4413 4.90933 16.8953 5.23659 17.4099 5.24964C17.4235 5.24998 17.44 5.25004 17.5001 5.25004H20.5001C20.9143 5.25004 21.2501 5.58582 21.2501 6.00004C21.2501 6.41425 20.9143 6.75004 20.5001 6.75004H3.5C3.08579 6.75004 2.75 6.41425 2.75 6.00004C2.75 5.58582 3.08579 5.25004 3.5 5.25004H6.50008C6.56013 5.25004 6.5767 5.24998 6.59023 5.24964C7.10488 5.23659 7.55891 4.90936 7.73402 4.42524C7.73863 4.41251 7.74392 4.39681 7.76291 4.33984L7.87452 4.00496C7.94281 3.79964 8.00233 3.62073 8.08559 3.46084C8.41453 2.82915 9.02313 2.39049 9.72643 2.27819C9.90445 2.24976 10.093 2.24988 10.3094 2.25002ZM9.00815 5.25004C9.05966 5.14902 9.10531 5.04404 9.14458 4.93548C9.1565 4.90251 9.1682 4.86742 9.18322 4.82234L9.28302 4.52292C9.37419 4.24941 9.39519 4.19363 9.41601 4.15364C9.52566 3.94307 9.72853 3.79686 9.96296 3.75942C10.0075 3.75231 10.067 3.75004 10.3553 3.75004H13.6448C13.9331 3.75004 13.9927 3.75231 14.0372 3.75942C14.2716 3.79686 14.4745 3.94307 14.5842 4.15364C14.605 4.19363 14.626 4.2494 14.7171 4.52292L14.8169 4.82216L14.8556 4.9355C14.8949 5.04405 14.9405 5.14902 14.992 5.25004H9.00815Z"
                  fill="var(--primary)"/>
            <path d="M5.91509 8.45015C5.88754 8.03685 5.53016 7.72415 5.11686 7.7517C4.70357 7.77925 4.39086 8.13663 4.41841 8.54993L4.88186 15.5017C4.96736 16.7844 5.03642 17.8205 5.19839 18.6336C5.36679 19.4789 5.65321 20.185 6.2448 20.7385C6.8364 21.2919 7.55995 21.5308 8.4146 21.6425C9.23662 21.7501 10.275 21.7501 11.5606 21.75H12.4395C13.7251 21.7501 14.7635 21.7501 15.5856 21.6425C16.4402 21.5308 17.1638 21.2919 17.7554 20.7385C18.347 20.185 18.6334 19.4789 18.8018 18.6336C18.9638 17.8206 19.0328 16.7844 19.1183 15.5017L19.5818 8.54993C19.6093 8.13663 19.2966 7.77925 18.8833 7.7517C18.47 7.72415 18.1126 8.03685 18.0851 8.45015L17.6251 15.3493C17.5353 16.6971 17.4713 17.6349 17.3307 18.3406C17.1943 19.025 17.004 19.3873 16.7306 19.6431C16.4572 19.8989 16.083 20.0647 15.391 20.1552C14.6776 20.2485 13.7376 20.25 12.3868 20.25H11.6134C10.2626 20.25 9.32255 20.2485 8.60915 20.1552C7.91715 20.0647 7.54299 19.8989 7.26958 19.6431C6.99617 19.3873 6.80583 19.025 6.66948 18.3406C6.52892 17.6349 6.46489 16.6971 6.37503 15.3493L5.91509 8.45015Z"
                  fill="var(--primary)"/>
            <path d="M9.42546 10.2538C9.83762 10.2125 10.2052 10.5133 10.2464 10.9254L10.7464 15.9254C10.7876 16.3376 10.4869 16.7051 10.0747 16.7463C9.66256 16.7875 9.29503 16.4868 9.25381 16.0747L8.75381 11.0747C8.7126 10.6625 9.01331 10.295 9.42546 10.2538Z"
                  fill="var(--primary)"/>
            <path d="M14.5747 10.2538C14.9869 10.295 15.2876 10.6625 15.2464 11.0747L14.7464 16.0747C14.7052 16.4868 14.3376 16.7875 13.9255 16.7463C13.5133 16.7051 13.2126 16.3376 13.2538 15.9254L13.7538 10.9254C13.795 10.5133 14.1626 10.2125 14.5747 10.2538Z"
                  fill="var(--primary)"/>
        </g>
    </symbol>
    <symbol viewBox="0 0 24 24" fill="none" xmlns="http://www.w3.org/2000/svg" id="cross">
        <g id="SVGRepo_bgCarrier" stroke-width="0"/>
        <g id="SVGRepo_tracerCarrier" stroke-linecap="round" stroke-linejoin="round"/>
        <g id="SVGRepo_iconCarrier">
            <path d="M19 5L5 19M5.00001 5L19 19" stroke="#EF3C40" stroke-width="4" stroke-linecap="round"
                  stroke-linejoin="round"/>
        </g>
    </symbol>
    <symbol viewBox="0 0 24 24" fill="none" xmlns="http://www.w3.org/2000/svg" id="confirm">
        <g id="SVGRepo_bgCarrier" stroke-width="0"/>
        <g id="SVGRepo_tracerCarrier" stroke-linecap="round" stroke-linejoin="round"/>
        <g id="SVGRepo_iconCarrier">
            <path d="M20.0001 7L9.0001 18L4 13" stroke="#639003" stroke-width="4" stroke-linecap="round"
                  stroke-linejoin="round"/>
        </g>
    </symbol>
    <symbol viewBox="0 0 24 24" fill="none" xmlns="http://www.w3.org/2000/svg" id="doubleArrowLeft">
        <g id="SVGRepo_bgCarrier" stroke-width="0"/>
        <g id="SVGRepo_tracerCarrier" stroke-linecap="round" stroke-linejoin="round"/>
        <g id="SVGRepo_iconCarrier">
            <path d="M13 19L7 12L13 5" stroke="var(--primary)" stroke-width="1.5" stroke-linecap="round"
                  stroke-linejoin="round"/>
            <path d="M17 19L11 12L17 5" stroke="var(--primary)" stroke-width="1.5" stroke-linecap="round"
                  stroke-linejoin="round"/>
        </g>
    </symbol>
    <symbol viewBox="0 0 24 24" fill="none" xmlns="http://www.w3.org/2000/svg" id="doubleArrowRight">
        <g id="SVGRepo_bgCarrier" stroke-width="0"/>
        <g id="SVGRepo_tracerCarrier" stroke-linecap="round" stroke-linejoin="round"/>
        <g id="SVGRepo_iconCarrier">
            <path d="M11 19L17 12L11 5" stroke="var(--primary)" stroke-width="1.5" stroke-linecap="round"
                  stroke-linejoin="round"/>
            <path d="M7 19L13 12L7 5" stroke="var(--primary)" stroke-width="1.5" stroke-linecap="round"
                  stroke-linejoin="round"/>
        </g>
    </symbol>
    <symbol viewBox="0 0 24 24" fill="none" xmlns="http://www.w3.org/2000/svg" id="arrowLeft">
        <g id="SVGRepo_bgCarrier" stroke-width="0"/>
        <g id="SVGRepo_tracerCarrier" stroke-linecap="round" stroke-linejoin="round"/>
        <g id="SVGRepo_iconCarrier">
            <path d="M15 5L9 12L15 19" stroke="var(--primary)" stroke-width="1.5" stroke-linecap="round"
                  stroke-linejoin="round"/>
        </g>
    </symbol>
    <symbol viewBox="0 0 24 24" fill="none" xmlns="http://www.w3.org/2000/svg" id="arrowRight">
        <g id="SVGRepo_bgCarrier" stroke-width="0"/>
        <g id="SVGRepo_tracerCarrier" stroke-linecap="round" stroke-linejoin="round"/>
        <g id="SVGRepo_iconCarrier">
            <path d="M9 5L15 12L9 19" stroke="var(--primary)" stroke-width="1.5" stroke-linecap="round"
                  stroke-linejoin="round"/>
        </g>
    </symbol>
    <symbol viewBox="0 0 711 409" class="icon" xmlns="http://www.w3.org/2000/svg" fill="inherit" id="car2">
        <path d="M111.9,80.6c-6.2,0-11.3-5.1-11.3-11.3V21.7c0-6.2,5.1-11.3,11.3-11.3s11.3,5.1,11.3,11.3v47.6
	C123.2,75.5,118.1,80.6,111.9,80.6z" fill="#A4A9AD" stroke="var(--primary)" stroke-width="2px"/>
        <path fill="inherit" filter="brightness(0.3)" d="M111.9,10.3c-6.2,0-11.3,5.1-11.3,11.3v19.9h22.7V21.6C123.2,15.4,118.1,10.3,111.9,10.3z"/>
        <path d="M421.8,80.6c-6.2,0-11.3-5.1-11.3-11.3V21.7c0-6.2,5.1-11.3,11.3-11.3s11.3,5.1,11.3,11.3v47.6
	C433.1,75.5,428.1,80.6,421.8,80.6z" fill="#A4A9AD" stroke="var(--primary)" stroke-width="2px"/>
        <path fill="inherit" filter="brightness(0.3)" d="M421.8,10.3c-6.2,0-11.3,5.1-11.3,11.3v19.9h22.7V21.6C433.1,15.4,428.1,10.3,421.8,10.3z"/>
        <path fill="#A4A9AD" stroke="var(--primary)" stroke-width="2px" d="M451.3,28.5h-369c-6.2,0-11.3-5.1-11.3-11.3S76.1,5.8,82.3,5.8h369c6.2,0,11.3,5.1,11.3,11.3
	S457.6,28.5,451.3,28.5z"/>
        <path fill="#333E48" stroke="var(--primary)" stroke-width="4px" d="M611.2,108.8h22.7v71.6h-22.7V108.8z"/>
        <path fill="inherit" filter="brightness(0.3)" d="M611.2,108.8v22.8c3.6,1.2,7.3,1.9,11.3,1.9s7.8-0.7,11.3-1.9v-22.8H611.2z"/>
        <path fill="#A4A9AD" stroke="var(--primary)" stroke-width="2px"
              d="M599.4,98.7c0,12.8,10.4,23.2,23.2,23.2s23.2-10.4,23.2-23.2s-10.4-23.2-23.2-23.2S599.4,85.9,599.4,98.7z"/>
        <path fill="inherit" stroke="var(--primary)" stroke-width="10px" d="M659.5,177.5h-163L480.6,84c-2.4-14.3-16.2-26-30.8-26h-355c-14.5,0-28.4,11.7-30.8,26L27.5,299.6
	c-2.4,14.3,7.4,26,22,26h610c14.5,0,26.4-11.9,26.4-26.4v-95.3C685.9,189.4,674,177.5,659.5,177.5z"/>
        <path fill="#FFB819" d="M631.7,245.8h54.1v36.7h-54.1V245.8z"/>
        <path fill="#FFFFFF" d="M640.3,282.5h-12.4c-2.9,0-5.3-2.3-5.3-5.2V251c0-2.9,2.3-5.2,5.3-5.2h12.4V282.5z"/>
        <path fill="#FFB819" d="M36.6,245.8l-6.2,36.7h47.1v-36.7H36.6z"/>
        <path fill="#FFFFFF" d="M69,282.5h12.4c2.9,0,5.2-2.3,5.2-5.2V251c0-2.9-2.3-5.2-5.2-5.2H69V282.5z"/>
        <path fill="inherit" filter="brightness(0.3)" d="M270.3,325.6c0-51.2-41.6-92.8-92.8-92.8s-92.8,41.6-92.8,92.8H270.3z"/>
        <path fill="#333E48" stroke="#ccc19f" stroke-width="4px"
              d="M101.3,325.6c0,42.1,34.1,76.2,76.2,76.2s76.2-34.1,76.2-76.2s-34.1-76.2-76.2-76.2S101.3,283.5,101.3,325.6z"
        />
        <path fill="#A4A9AD" stroke="var(--primary)" stroke-width="2px" d="M138.9,325.6c0,21.3,17.3,38.6,38.6,38.6c21.3,0,38.6-17.3,38.6-38.6S198.8,287,177.5,287
	S138.9,304.3,138.9,325.6L138.9,325.6z"/>
        <path fill="inherit" filter="brightness(0.3)" d="M605.5,325.6c0-51.2-41.6-92.8-92.8-92.8s-92.8,41.6-92.8,92.8H605.5z"/>
        <path fill="#333E48" stroke="#ccc19f" stroke-width="4px"
              d="M436.5,325.6c0,42.1,34.1,76.2,76.2,76.2s76.2-34.1,76.2-76.2s-34.1-76.2-76.2-76.2S436.5,283.5,436.5,325.6z"
        />
        <path fill="#A4A9AD" stroke="var(--primary)" stroke-width="2px" d="M474.1,325.6c0,21.3,17.3,38.6,38.6,38.6c21.3,0,38.6-17.3,38.6-38.6c0,0,0,0,0,0c0-21.3-17.3-38.6-38.6-38.6
	C491.4,287,474.1,304.2,474.1,325.6C474.1,325.6,474.1,325.6,474.1,325.6z"/>
        <path fill="#A4A9AD" stroke="var(--primary)" stroke-width="2px" d="M706,319.4c0,7.7-6.3,14.1-14.1,14.1h-31.6c-7.7,0-14.1-6.3-14.1-14.1v-22.8c0-7.7,6.3-14.1,14.1-14.1H692
	c7.7,0,14.1,6.3,14.1,14.1V319.4z M63.8,319.4c0,7.7-6.3,14.1-14.1,14.1H18.1c-7.7,0-14.1-6.3-14.1-14.1v-22.8
	c0-7.7,6.3-14.1,14.1-14.1h31.6c7.7,0,14.1,6.3,14.1,14.1V319.4z"/>
        <path fill="#57616b" opacity="0.7" d="M313.2,100.4c0-6.6,5.5-12.1,12.1-12.1h99.1c6.6,0,12.1,5.5,12.1,12.1V155c0,6.6-5.5,12.1-12.1,12.1h-99.2
	c-6.6,0-12.1-5.5-12.1-12.1L313.2,100.4L313.2,100.4z M111,100.1c1.1-6.6,7.5-12,14.1-12h108.2c6.6,0,12.1,5.5,12.1,12.1v54.6
	c0,6.6-5.5,12.1-12.1,12.1H111.8c-6.6,0-11.2-5.4-10.1-12L111,100.1L111,100.1z"/>
        <path fill="inherit" filter="brightness(0.5)" d="M364.8,209.3h-41c-6.2,0-11.3-5.1-11.3-11.3s5.1-11.3,11.3-11.3h41c6.2,0,11.3,5.1,11.3,11.3
	S371,209.3,364.8,209.3z M144.1,209.3h-41c-6.2,0-11.3-5.1-11.3-11.3s5.1-11.3,11.3-11.3h41c6.2,0,11.3,5.1,11.3,11.3
	S150.4,209.3,144.1,209.3z"/>
        <path fill="inherit" filter="brightness(0.3)" d="M424.5,88.3h-99.2c-6.6,0-12.1,5.5-12.1,12.1v13.5c0-6.6,5.5-12.1,12.1-12.1h99.1c6.6,0,12.1,5.5,12.1,12.1v-13.5
	C436.5,93.6,431.1,88.3,424.5,88.3z M233.3,88.3H125.2c-6.6,0-13,5.4-14.1,12l-2.2,12.9c1.4-6.2,7.6-11.2,14-11.2h110.5
	c6.6,0,12.1,5.5,12.1,12.1v-13.5C245.4,93.6,240,88.3,233.3,88.3L233.3,88.3z"/>
    </symbol>
    <symbol id="wheel" xmlns="http://www.w3.org/2000/svg"
            viewBox="0 0 800 800">
        <path fill-rule="evenodd" clip-rule="evenodd" fill="var(--primary)" d="M670,771.9c-55,0-82.5,0-99.6-17.1c-17.1-17.1-17.1-44.6-17.1-99.6s0-82.5,17.1-99.6
	c17.1-17.1,44.6-17.1,99.6-17.1c55,0,82.5,0,99.6,17.1c17.1,17.1,17.1,44.6,17.1,99.6s0,82.5-17.1,99.6
	C752.5,771.9,725,771.9,670,771.9z M689.4,603.4c0-10.7-8.7-19.4-19.4-19.4c-10.7,0-19.4,8.7-19.4,19.4v32.4h-32.4
	c-10.7,0-19.4,8.7-19.4,19.4s8.7,19.4,19.4,19.4h32.4v32.4c0,10.7,8.7,19.4,19.4,19.4c10.7,0,19.4-8.7,19.4-19.4v-32.4h32.4
	c10.7,0,19.4-8.7,19.4-19.4s-8.7-19.4-19.4-19.4h-32.4V603.4z"/>
        <path fill="var(--primary)" d="M496.4,731.8c-0.6-3-1-6-1.4-9c-2.6-19.3-2.6-42.8-2.6-67.8v-5.7c0-25,0-48.5,2.6-67.8
	c2.9-21.4,9.8-44.9,29.1-64.3c19.4-19.4,42.8-26.3,64.3-29.2c12.8-1.7,27.5-2.3,43.3-2.5c-36.7-10.7-78.4-16.8-122.6-16.8
	c-35,0-68.4,3.8-99,10.7"/>
        <g id="SVGRepo_iconCarrier">
            <path fill="var(--primary)" d="M492.7,712.8c-0.7-5.9-1-11.8-1.2-17.7c-0.2-6-0.9-12.1-1.4-18.1c-0.5-5.9-0.8-11.9-0.3-17.8
		c0.5-5.3,2.8-10.5,1.5-15.7c-0.3,0.2-0.8,0-0.8-0.4c0-2.4,0-4.7,0-7.1c0.1-9.4,0.4-18.8,0.9-28.2c0.5-8.8,1-17.5,2.5-26.2
		c1.5-8.5,3.8-16.8,6.5-25.1c2.3-7,4.7-13.9,7.9-20.5c3.1-6.6,7-12.7,12-18.1c5.3-5.8,11.8-10.7,18.6-14.6c6.5-3.8,13.6-6.6,20.7-9
		c7.5-2.5,15.1-4.9,22.7-6.8c15.6-3.8,32.6-5.4,48.4-2c3.3-27.3,5.1-55.9,5.1-85.4c0-184.1-69.1-333.3-154.3-333.3H224.6
		c28.9,18.7,55.2,51.6,73.3,90.8c29.1,62.9,46.7,148.7,46.7,242.5c0,93.8-17.6,179.6-46.7,242.5c-18.1,39.1-44.4,72.1-73.3,90.8
		h257.1c4.8,0,9.6-0.5,14.3-1.4C494.5,725.6,493.5,719.2,492.7,712.8z"/>
            <path fill-rule="evenodd" clip-rule="evenodd" fill="var(--primary)" d="M79.7,171.1C53,228.9,36,309.8,36,400c0,90.2,17,171.2,43.7,228.9c27.4,59.3,61.8,87.8,93.5,87.8
		c31.7,0,66-28.5,93.5-87.8c26.7-57.7,43.7-138.6,43.7-228.9c0-90.2-17-171.1-43.7-228.9c-27.4-59.3-61.8-87.8-93.5-87.8
		C141.5,83.3,107.1,111.9,79.7,171.1z M121.7,400c0,110.5,23,200,51.4,200c26.2,0,47.9-76.3,51-175h-33.9c-14.2,0-25.7-11.2-25.7-25
		s11.5-25,25.7-25h33.9c-3.2-98.7-24.8-175-51-175C144.7,200,121.7,289.5,121.7,400z"/>
        </g>
    </symbol>
    <symbol viewBox="0 0 24 24" fill="none" xmlns="http://www.w3.org/2000/svg" id="startRace">
        <g id="SVGRepo_bgCarrier" stroke-width="0/"/>
        <g id="SVGRepo_tracerCarrier" stroke-linecap="round" stroke-linejoin="round"/>
        <g id="SVGRepo_iconCarrier">
            <path d="M21.4086 9.35258C23.5305 10.5065 23.5305 13.4935 21.4086 14.6474L8.59662 21.6145C6.53435 22.736 4 21.2763 4 18.9671L4 5.0329C4 2.72368 6.53435 1.26402 8.59661 2.38548L21.4086 9.35258Z"
                  fill="var(--primary)"/>
        </g>
    </symbol>
    <symbol viewBox="0 0 24 24" fill="none" xmlns="http://www.w3.org/2000/svg" id="reset">
        <g id="SVGRepo_bgCarrier" stroke-width="0"/>
        <g id="SVGRepo_tracerCarrier" stroke-linecap="round" stroke-linejoin="round"/>
        <g id="SVGRepo_iconCarrier">
            <path fill-rule="evenodd" clip-rule="evenodd"
                  d="M22 12C22 17.5228 17.5228 22 12 22C6.47715 22 2 17.5228 2 12C2 6.47715 6.47715 2 12 2C17.5228 2 22 6.47715 22 12ZM5.46056 11.0833C5.83331 7.79988 8.62404 5.25 12.0096 5.25C14.148 5.25 16.0489 6.26793 17.2521 7.84246C17.5036 8.17158 17.4406 8.64227 17.1115 8.89376C16.7824 9.14526 16.3117 9.08233 16.0602 8.7532C15.1289 7.53445 13.6613 6.75 12.0096 6.75C9.45213 6.75 7.33639 8.63219 6.9733 11.0833H7.33652C7.63996 11.0833 7.9135 11.2662 8.02953 11.5466C8.14556 11.8269 8.0812 12.1496 7.86649 12.364L6.69823 13.5307C6.40542 13.8231 5.9311 13.8231 5.63829 13.5307L4.47003 12.364C4.25532 12.1496 4.19097 11.8269 4.30699 11.5466C4.42302 11.2662 4.69656 11.0833 5 11.0833H5.46056ZM18.3617 10.4693C18.0689 10.1769 17.5946 10.1769 17.3018 10.4693L16.1335 11.636C15.9188 11.8504 15.8545 12.1731 15.9705 12.4534C16.0865 12.7338 16.3601 12.9167 16.6635 12.9167H17.0267C16.6636 15.3678 14.5479 17.25 11.9905 17.25C10.3464 17.25 8.88484 16.4729 7.9529 15.2638C7.70002 14.9358 7.22908 14.8748 6.90101 15.1277C6.57295 15.3806 6.512 15.8515 6.76487 16.1796C7.96886 17.7416 9.86205 18.75 11.9905 18.75C15.376 18.75 18.1667 16.2001 18.5395 12.9167H19C19.3035 12.9167 19.577 12.7338 19.693 12.4534C19.8091 12.1731 19.7447 11.8504 19.53 11.636L18.3617 10.4693Z"
                  fill="var(--primary)"/>
        </g>
    </symbol>
    <symbol id="sort" viewBox="0 0 24 24" fill="none" xmlns="http://www.w3.org/2000/svg">
        <g id="SVGRepo_bgCarrier" stroke-width="0"/>
        <g id="SVGRepo_tracerCarrier" stroke-linecap="round" stroke-linejoin="round"/>
        <g id="SVGRepo_iconCarrier">
            <path fill-rule="evenodd" clip-rule="evenodd"
                  d="M3.25 7C3.25 6.58579 3.58579 6.25 4 6.25H20C20.4142 6.25 20.75 6.58579 20.75 7C20.75 7.41421 20.4142 7.75 20 7.75H4C3.58579 7.75 3.25 7.41421 3.25 7ZM3.25 12C3.25 11.5858 3.58579 11.25 4 11.25H15C15.4142 11.25 15.75 11.5858 15.75 12C15.75 12.4142 15.4142 12.75 15 12.75H4C3.58579 12.75 3.25 12.4142 3.25 12ZM3.25 17C3.25 16.5858 3.58579 16.25 4 16.25H9C9.41421 16.25 9.75 16.5858 9.75 17C9.75 17.4142 9.41421 17.75 9 17.75H4C3.58579 17.75 3.25 17.4142 3.25 17Z"
                  fill="var(--primary)"/>
        </g>
    </symbol>

</svg>
